<?xml version="1.0" standalone="no"?><!DOCTYPE svg PUBLIC "-//W3C//DTD SVG 1.1//EN" "http://www.w3.org/Graphics/SVG/1.1/DTD/svg11.dtd"><svg t="1585213512458" class="icon" viewBox="0 0 1024 1024" version="1.1" xmlns="http://www.w3.org/2000/svg" p-id="3400" xmlns:xlink="http://www.w3.org/1999/xlink" width="20" height="20"><defs><style type="text/css"></style></defs><path d="M928.193561 226.179122H95.806439c-20.87961 0-31.369366 10.489756-31.369366 33.367415v33.367414l331.776 214.890147c1.998049 0 1.998049 0 1.998049 2.097951l33.367415 20.87961c54.247024 33.367415 106.396098 33.367415 160.643122 0l31.369365-20.87961c2.097951 0 4.195902 0 4.195903-1.998049l331.776-214.890146v-33.467317c0-20.87961-10.489756-33.367415-31.369366-33.367415z m-319.188293 331.676098l27.073561-16.78361 323.384195 208.696195v14.585756c0 22.877659-10.489756 33.367415-31.369365 33.367415H95.806439c-20.87961 0-31.369366-10.489756-31.369366-33.367415v-14.585756l323.384195-208.696195 27.173464 16.78361c64.636878 41.75922 129.373659 41.75922 194.010536 0zM959.562927 712.30439L667.448195 522.389854l292.114732-189.814634V712.30439z m-895.125854-379.72917l292.114732 189.814634L64.437073 712.30439V332.57522z" fill="rgb(138,144,153)" p-id="3401"></path></svg>