<?xml version="1.0" standalone="no"?><!DOCTYPE svg PUBLIC "-//W3C//DTD SVG 1.1//EN" "http://www.w3.org/Graphics/SVG/1.1/DTD/svg11.dtd"><svg t="1585212617848" class="icon" viewBox="0 0 1024 1024" version="1.1" xmlns="http://www.w3.org/2000/svg" p-id="22273" xmlns:xlink="http://www.w3.org/1999/xlink" width="26" height="26"><defs><style type="text/css"></style></defs><path d="M616.018 338.836l0.02-210.411H197.627V895.57h628.808V338.836H616.018z m4.833 183.005c-8.74-18.73-27.1-26.83-43.71-29.005-16.353-2.197-31.098 1.106-41.988 3.364v143.826c1.167 20.905-11.485 43.36-33.885 56.294-29.818 17.208-65.628 11.018-79.974-13.83-14.346-24.852-1.802-58.95 28.017-76.164 22.845-13.194 49.208-12.647 66.739-0.497V490.89l-0.113-0.051 0.113-0.261V446.71c0-5.29 4.285-9.662 9.57-9.667a9.544 9.544 0 0 1 8.59 5.494c15.048 13.097 29.272 17.92 45.138 24.023 12.611 4.87 23.85 12.344 30.925 22.58 7.25 9.999 10.332 22.747 10.62 32.772l-0.042-0.071z" fill="#8a8a8a" p-id="22274"></path><path d="M813.64 307.569L647.772 143.83l0.266 163.738z" fill="#707070" p-id="22275"></path></svg>