<?xml version="1.0" standalone="no"?><!DOCTYPE svg PUBLIC "-//W3C//DTD SVG 1.1//EN" "http://www.w3.org/Graphics/SVG/1.1/DTD/svg11.dtd"><svg t="1585211809191" class="icon" viewBox="0 0 1314 1024" version="1.1" xmlns="http://www.w3.org/2000/svg" p-id="10144" xmlns:xlink="http://www.w3.org/1999/xlink" width="256.640625" height="200"><defs><style type="text/css"></style></defs><path d="M656.042569 64.141931c246.958712 0 447.888756 200.902482 447.888756 447.859941 0 246.923633-200.931297 447.85493-447.888756 447.85493-246.92238 0-447.824862-200.931297-447.824862-447.85493C208.217708 265.045666 409.120189 64.141931 656.042569 64.141931M656.042569-3.3e-05C373.325822-3.3e-05 144.074491 229.251298 144.074491 512.001872c0 282.746815 229.188689 511.998146 511.968078 511.998146 282.780642 0 512.033225-229.25133 512.033225-511.998146C1168.074541 229.251298 938.823211-3.3e-05 656.042569-3.3e-05L656.042569-3.3e-05 656.042569-3.3e-05zM656.042569-3.3e-05" p-id="10145"></path><path d="M272.360924 664.648169" p-id="10146"></path><path d="M541.91678 430.319152c0-1.710102 0.142822-3.28114 0.285643-4.847167-8.130813 13.263623-12.97798 28.81114-12.97798 45.353397 0 47.924187 38.79237 86.573735 86.568724 86.573735 18.398939 0 35.513736-5.850677 49.488961-15.687833-3.707099 0.428465-7.554515 0.71035-11.405688 0.71035C592.118597 542.280066 541.91678 492.218565 541.91678 430.319152L541.91678 430.319152zM541.91678 430.319152" p-id="10147"></path><path d="M871.375051 646.394557l-73.024469-72.8829c-4.993747-4.988736-11.267878-8.411445-17.970474-10.124052-2.995497-0.714108-5.98974-1.142573-9.128059-1.142573-3.848668 0-7.699842 0.571287-11.266625 1.712607l-3.278634-3.279887c19.679323-27.52825 30.517483-61.043736 30.517483-95.133013 0-90.848363-73.877641-164.868825-164.585687-164.868825-91.135259 0.142822-165.011647 74.020462-165.011647 164.868825 0 90.710552 74.020462 164.58694 164.868825 164.58694 34.089277 0 67.60351-10.836907 95.130507-30.517483l3.28114 3.278634c-1.999503 6.416953-2.142325 13.264876-0.714108 19.82465 1.571038 6.985734 4.992494 13.549266 10.268126 18.683329l72.881647 72.881647c7.275135 7.273883 16.971975 11.266625 27.238849 11.266625 10.268126 0 19.967472-3.993995 27.240101-11.266625l13.551772-13.550519c7.273883-7.27263 11.26412-16.973228 11.26412-27.240101C882.639171 663.364027 878.648934 653.669693 871.375051 646.394557L871.375051 646.394557zM622.211373 582.212503c-64.319864 0-116.665259-52.20132-116.665259-116.524943 0-64.32237 52.344142-116.664006 116.665259-116.664006 64.32237 0 116.667765 52.340383 116.667765 116.664006C738.877885 529.867109 686.533743 582.212503 622.211373 582.212503L622.211373 582.212503zM622.211373 582.212503" p-id="10148"></path></svg>