<?xml version="1.0" standalone="no"?><!DOCTYPE svg PUBLIC "-//W3C//DTD SVG 1.1//EN" "http://www.w3.org/Graphics/SVG/1.1/DTD/svg11.dtd"><svg t="1585211085934" class="icon" viewBox="0 0 1024 1024" version="1.1" xmlns="http://www.w3.org/2000/svg" p-id="4148" xmlns:xlink="http://www.w3.org/1999/xlink" width="24" height="24"><defs><style type="text/css"></style></defs><path d="M512 950.857143c241.371429 0 438.857143-197.485714 438.857143-438.857143s-197.485714-438.857143-438.857143-438.857143-438.857143 197.485714-438.857143 438.857143 197.485714 438.857143 438.857143 438.857143z m0 73.142857c-285.257143 0-512-226.742857-512-512s226.742857-512 512-512 512 226.742857 512 512-226.742857 512-512 512z m0-658.285714c80.457143 0 146.285714 65.828571 146.285714 146.285714s-65.828571 146.285714-146.285714 146.285714-146.285714-65.828571-146.285714-146.285714 65.828571-146.285714 146.285714-146.285714z" p-id="4149" fill="#d81e06"></path></svg>