<?xml version="1.0" standalone="no"?><!DOCTYPE svg PUBLIC "-//W3C//DTD SVG 1.1//EN" "http://www.w3.org/Graphics/SVG/1.1/DTD/svg11.dtd"><svg t="1585212243032" class="icon" viewBox="0 0 1024 1024" version="1.1" xmlns="http://www.w3.org/2000/svg" p-id="16646" xmlns:xlink="http://www.w3.org/1999/xlink" width="26" height="26"><defs><style type="text/css"></style></defs><path d="M470.59 622.59H304.71c-2.76 0-5-2.24-5-5s2.24-5 5-5h165.88c2.76 0 5 2.24 5 5s-2.24 5-5 5zM553.53 498.18H304.71c-2.76 0-5-2.24-5-5s2.24-5 5-5h248.82c2.76 0 5 2.24 5 5s-2.24 5-5 5zM636.47 373.77H304.71c-2.76 0-5-2.24-5-5s2.24-5 5-5h331.76c2.76 0 5 2.24 5 5s-2.24 5-5 5zM719.41 249.36h-414.7c-2.76 0-5-2.24-5-5s2.24-5 5-5h414.7c2.76 0 5 2.24 5 5s-2.24 5-5 5z" p-id="16647"></path><path d="M512.06 935.62H304.71c-52.83 0-83.74-8.38-103.39-28.02-19.64-19.64-28.02-50.56-28.02-103.39V223.63c0-52.83 8.38-83.75 28.02-103.39s50.56-28.02 103.39-28.02h414.7c52.83 0 83.74 8.38 103.39 28.02 19.64 19.64 28.02 50.56 28.02 103.39v290.29c0 3.87-3.13 7-7 7s-7-3.13-7-7V223.63c0-48.76-7.15-76.72-23.92-93.49-16.77-16.77-44.73-23.92-93.49-23.92h-414.7c-48.76 0-76.72 7.15-93.49 23.92-16.77 16.77-23.92 44.73-23.92 93.49v580.58c0 48.76 7.15 76.72 23.92 93.49 16.77 16.77 44.73 23.92 93.49 23.92h207.35c3.87 0 7 3.13 7 7s-3.13 7-7 7zM698.68 889.04c4.83 0 11.17 0.58 13.95 3.37 2.79 2.79 3.37 9.13 3.37 13.95s-0.58 11.17-3.37 13.95-9.13 3.37-13.95 3.37-11.17-0.58-13.95-3.37c-2.79-2.79-3.37-9.13-3.37-13.95 0-4.83 0.58-11.17 3.37-13.95 2.78-2.79 9.12-3.37 13.95-3.37m0-12c-20.74 0-29.32 8.59-29.32 29.32s8.59 29.32 29.32 29.32S728 927.1 728 906.36s-8.59-29.32-29.32-29.32z" p-id="16648"></path><path d="M698.68 872.88c-11.48 0-26.74-2.5-26.74-24.15v-124.4c0-18.42 1.5-30.6 9.19-38.28s19.86-9.19 38.28-9.19c31.71 0 58.95-18.2 71.08-47.5 12.14-29.3 5.75-61.43-16.68-83.85-22.42-22.42-54.55-28.81-83.85-16.68-29.3 12.13-47.5 39.37-47.5 71.08 0 8.3-2.07 14.36-6.31 18.5-4.44 4.33-10.77 6.23-19.92 6.01-12.68-0.32-27.23-3.39-27.23-24.51 0-52.43 29.8-98.15 77.77-119.31 47.97-21.16 101.83-12.35 140.56 23 38.73 35.35 52.4 88.18 35.69 137.88s-59.53 83.53-111.75 88.3c-5.04 0.46-5.86 1.36-5.86 6.41v112.54c0 21.65-15.26 24.15-26.73 24.15z m21.29-362.13c22.9 0 45.09 9.04 62.33 26.28 25.92 25.92 33.31 63.06 19.28 96.93-14.03 33.87-45.51 54.9-82.17 54.9-17.36 0-25.71 1.59-29.8 5.67-4.08 4.08-5.67 12.44-5.67 29.8v124.41c0 8.57 2.05 12.15 14.74 12.15s14.74-3.58 14.74-12.15V736.2c0-11.17 5.64-17.35 16.77-18.36 47.41-4.33 86.29-35.05 101.47-80.17 15.18-45.13 2.76-93.1-32.4-125.2-35.16-32.1-84.06-40.1-127.62-20.88-43.58 19.2-70.64 60.72-70.64 108.32 0 8.95 2.35 12.19 15.53 12.51 5.63 0.14 9.31-0.71 11.25-2.6 1.79-1.74 2.69-5.08 2.69-9.91 0-36.66 21.04-68.14 54.9-82.17 11.35-4.69 23.07-6.99 34.6-6.99z" fill="#707070" p-id="16649"></path></svg>