<?xml version="1.0" standalone="no"?><!DOCTYPE svg PUBLIC "-//W3C//DTD SVG 1.1//EN" "http://www.w3.org/Graphics/SVG/1.1/DTD/svg11.dtd"><svg t="1585289291155" class="icon" viewBox="0 0 1024 1024" version="1.1" xmlns="http://www.w3.org/2000/svg" p-id="31420" width="26" height="26" xmlns:xlink="http://www.w3.org/1999/xlink"><defs><style type="text/css"></style></defs><path d="M924.8 337.6c-22.6-53.4-54.9-101.3-96-142.4-41.1-41.1-89-73.4-142.4-96C631.1 75.9 572.5 64 512 64S392.9 75.9 337.6 99.2c-53.4 22.6-101.3 54.9-142.4 96s-73.4 89-96 142.4C75.9 392.9 64 451.5 64 512s11.9 119.1 35.2 174.4c22.6 53.4 54.9 101.3 96 142.4 41.1 41.1 89 73.4 142.4 96C392.9 948.1 451.5 960 512 960s119.1-11.9 174.4-35.2c53.4-22.6 101.3-54.9 142.4-96 41.1-41.1 73.4-89 96-142.4C948.1 631.1 960 572.5 960 512s-11.9-119.1-35.2-174.4z m-59 323.9c-19.3 45.7-47 86.8-82.3 122.1s-76.3 63-122.1 82.3c-47.3 20-97.6 30.2-149.5 30.2-51.8 0-102.1-10.2-149.5-30.2-45.7-19.3-86.8-47-122.1-82.3s-63-76.3-82.3-122.1c-20-47.3-30.2-97.6-30.2-149.5S138 409.9 158 362.5c19.3-45.7 47-86.8 82.3-122.1s76.3-63 122.1-82.3c47.3-20 97.6-30.2 149.5-30.2s102.1 10.2 149.5 30.2c45.7 19.3 86.8 47 122.1 82.3s63 76.3 82.3 122.1c20 47.3 30.2 97.6 30.2 149.5 0 51.8-10.2 102.1-30.2 149.5z" p-id="31421" fill="#707070"></path><path d="M681.4 636.1c31.3-41 48.2-90.8 48.2-143.3 0-63.3-24.6-122.7-69.4-167.4-44.7-44.8-104.1-69.4-167.4-69.4-63.3 0-122.7 24.6-167.4 69.4S256 429.5 256 492.8c0 63.3 24.6 122.7 69.4 167.4 44.7 44.7 104.2 69.4 167.4 69.4 52.5 0 102.3-17 143.3-48.2l77.3 77.3c6.2 6.2 14.4 9.4 22.6 9.4s16.4-3.1 22.6-9.4c12.5-12.5 12.5-32.8 0-45.3l-77.2-77.3zM320 492.8c0-95.3 77.5-172.8 172.8-172.8s172.8 77.5 172.8 172.8-77.5 172.8-172.8 172.8S320 588.1 320 492.8z" p-id="31422" fill="#707070"></path></svg>